<svg width="19" height="20" viewBox="0 0 19 20" fill="none" xmlns="http://www.w3.org/2000/svg">
<path d="M10.702 9.99868L18.3192 0.918991C18.4469 0.768098 18.3395 0.538857 18.1422 0.538857H15.8266C15.6902 0.538857 15.5596 0.599794 15.4697 0.704258L9.18729 8.19377L2.90492 0.704258C2.81787 0.599794 2.68729 0.538857 2.548 0.538857H0.232375C0.035054 0.538857 -0.0723122 0.768098 0.0553664 0.918991L7.67255 9.99868L0.0553664 19.0784C0.0267652 19.112 0.00841644 19.1531 0.00249786 19.1969C-0.00342072 19.2406 0.00333947 19.2852 0.0219765 19.3252C0.0406136 19.3652 0.0703447 19.3991 0.107639 19.4227C0.144934 19.4463 0.188226 19.4587 0.232375 19.4585H2.548C2.68438 19.4585 2.81497 19.3976 2.90492 19.2931L9.18729 11.8036L15.4697 19.2931C15.5567 19.3976 15.6873 19.4585 15.8266 19.4585H18.1422C18.3395 19.4585 18.4469 19.2293 18.3192 19.0784L10.702 9.99868Z" fill="#6246EA"/>
</svg>
