<svg width="22" height="22" viewBox="0 0 22 22" fill="none" xmlns="http://www.w3.org/2000/svg">
<g clip-path="url(#clip0_10_5)">
<path d="M20.1667 12.8333C20.1667 17.8961 16.0619 22 11 22C5.93821 22 1.83337 17.8961 1.83337 12.8333C1.83337 7.77058 5.93821 3.66667 11 3.66667C16.0619 3.66667 20.1667 7.77058 20.1667 12.8333ZM18.3334 12.8333C18.3334 8.78992 15.0435 5.5 11 5.5C6.95662 5.5 3.66671 8.78992 3.66671 12.8333C3.66671 16.8768 6.95662 20.1667 11 20.1667C15.0435 20.1667 18.3334 16.8768 18.3334 12.8333ZM12.8334 1.99925V0H9.16671V1.99925C10.4574 1.78108 11.5152 1.7765 12.8334 1.99925ZM18.9558 5.25708L20.1667 4.04617L18.8705 2.75L17.5808 4.03975C18.0721 4.40825 18.5323 4.81342 18.9558 5.25708V5.25708ZM11 7.33333V12.8333H16.5C16.5 9.80008 14.0333 7.33333 11 7.33333V7.33333Z" fill="#6246EA"/>
</g>
<defs>
<clipPath id="clip0_10_5">
<rect width="22" height="22" fill="white"/>
</clipPath>
</defs>
</svg>
