<svg width="20" height="20" viewBox="0 0 20 20" fill="none" xmlns="http://www.w3.org/2000/svg">
<path d="M1.56721 16.155C3.45405 18.495 6.39257 20 9.69196 20C15.386 20 19.9923 15.5375 20 10.015C20.0077 4.485 15.3912 -1.91386e-07 9.69197 -4.2805e-07C6.46475 -5.62062e-07 3.58551 1.4375 1.6961 3.69C1.62392 3.7775 1.63939 3.905 1.7296 3.975L3.03132 4.96C3.11896 5.0275 3.24526 5.0125 3.31744 4.93C3.48756 4.7275 3.67057 4.5325 3.8639 4.345C4.61494 3.61405 5.50526 3.03159 6.48537 2.63C7.49839 2.21 8.57842 2 9.69196 2C10.8055 2 11.8855 2.21 12.9011 2.6275C13.8832 3.03 14.7648 3.6075 15.5226 4.3425C16.2804 5.0775 16.8759 5.9325 17.2909 6.885C17.7213 7.8725 17.9379 8.92 17.9379 10C17.9379 11.08 17.7213 12.1275 17.2909 13.1125C16.8759 14.065 16.2804 14.92 15.5226 15.655C14.7648 16.39 13.8832 16.9675 12.9011 17.37C11.8855 17.7875 10.8055 17.9975 9.69196 17.9975C8.57842 17.9975 7.49838 17.7875 6.48279 17.37C5.50268 16.9684 4.61236 16.386 3.86132 15.655C3.6216 15.4225 3.39734 15.1775 3.19113 14.9225L4.53409 13.905C4.56479 13.882 4.58817 13.851 4.60153 13.8156C4.61489 13.7803 4.61769 13.742 4.60961 13.7052C4.60153 13.6684 4.5829 13.6345 4.55586 13.6075C4.52882 13.5805 4.49447 13.5614 4.45676 13.5525L0.0206214 12.4444L-1.12579e-06 16.93C-1.1335e-06 17.0975 0.198479 17.1925 0.332517 17.0875L1.56721 16.155Z" fill="#6246EA"/>
</svg>
