<svg width="24" height="19" viewBox="0 0 24 19" fill="none" xmlns="http://www.w3.org/2000/svg">
<path d="M23.1429 0H0.857143C0.383036 0 0 0.385937 0 0.863636V18.1364C0 18.6141 0.383036 19 0.857143 19H23.1429C23.617 19 24 18.6141 24 18.1364V0.863636C24 0.385937 23.617 0 23.1429 0ZM22.0714 2.99034V17.0568H1.92857V2.99034L1.18929 2.41009L2.24196 1.04716L3.38839 1.94588H20.6143L21.7607 1.04716L22.8134 2.41009L22.0714 2.99034ZM20.6143 1.94318L12 8.69034L3.38571 1.94318L2.23929 1.04446L1.18661 2.40739L1.92589 2.98764L11.0759 10.1558C11.339 10.3618 11.6628 10.4736 11.996 10.4736C12.3292 10.4736 12.6529 10.3618 12.9161 10.1558L22.0714 2.99034L22.8107 2.41009L21.758 1.04716L20.6143 1.94318Z" fill="#6246EA"/>
</svg>
