<svg width="25" height="25" viewBox="0 0 25 25" fill="none" xmlns="http://www.w3.org/2000/svg">
<g clip-path="url(#clip0_8_31)">
<path d="M24.7768 11.4414H14.1155C13.8365 11.3856 13.5435 11.3298 13.2338 11.274C12.7902 11.1931 12.6144 11.1596 12.3744 11.1122C10.9431 10.8332 10.0809 10.5541 9.39453 10.1579C8.41518 9.58595 7.93806 8.81028 7.93806 7.78349C7.93806 6.75112 8.36217 5.89454 9.16574 5.30023C9.95815 4.71429 11.0854 4.40458 12.4247 4.40458C13.9537 4.40458 15.1339 4.80637 15.9347 5.59878C16.3421 6.00057 16.6406 6.49443 16.822 7.06642C16.8583 7.18081 16.9001 7.34543 16.942 7.56307C16.9671 7.697 17.0871 7.79186 17.2182 7.79186H19.2494C19.4057 7.79186 19.5312 7.66351 19.5312 7.51005V7.48215C19.5117 7.29242 19.495 7.14454 19.4754 7.03572C19.2718 5.822 18.6942 4.75615 17.8097 3.95816C16.5709 2.82813 14.7489 2.23383 12.5446 2.23383C10.5273 2.23383 8.71094 2.73885 7.43025 3.65403C6.71596 4.16742 6.1635 4.80358 5.7952 5.54298C5.41853 6.29912 5.22879 7.17244 5.22879 8.13505C5.22879 8.95816 5.38784 9.6557 5.7115 10.2695C5.94308 10.7076 6.25837 11.0926 6.66295 11.4414H0.223214C0.100446 11.4414 0 11.5419 0 11.6646V13.3387C0 13.4615 0.100446 13.562 0.223214 13.562H12.3103C12.3689 13.5731 12.4191 13.5843 12.4749 13.5954C13.3371 13.7684 13.856 13.8856 14.3331 14.0195C14.9749 14.2009 15.466 14.3906 15.8733 14.6194C16.8722 15.183 17.3605 15.9922 17.3605 17.1027C17.3605 18.0876 16.928 18.9665 16.144 19.5804C15.293 20.2472 14.0346 20.596 12.5028 20.596C11.2835 20.596 10.2511 20.3588 9.42801 19.8984C8.61607 19.4436 8.05804 18.788 7.76228 17.9593C7.73996 17.8979 7.71484 17.8142 7.68694 17.7082C7.65346 17.5854 7.53906 17.4989 7.41629 17.4989H5.19252C5.03627 17.4989 4.91071 17.6272 4.91071 17.7807V17.8086C4.91629 17.8728 4.92188 17.9258 4.92746 17.9676C5.10882 19.3293 5.77288 20.4453 6.90011 21.2824C8.21429 22.2534 10.0642 22.7668 12.2517 22.7668C14.601 22.7668 16.5709 22.2143 17.9492 21.168C18.6468 20.6406 19.1825 19.9905 19.5424 19.2428C19.9051 18.4866 20.0921 17.6272 20.0921 16.6897C20.0921 15.8025 19.9302 15.0603 19.5954 14.4185C19.4336 14.106 19.2299 13.8186 18.9872 13.5592H24.7768C24.8996 13.5592 25 13.4587 25 13.3359V11.6618C24.9993 11.6031 24.9754 11.5471 24.9336 11.5058C24.8919 11.4645 24.8355 11.4414 24.7768 11.4414V11.4414Z" fill="#F5487F"/>
</g>
<defs>
<clipPath id="clip0_8_31">
<rect width="25" height="25" fill="white"/>
</clipPath>
</defs>
</svg>
