<svg width="25" height="25" viewBox="0 0 25 25" fill="none" xmlns="http://www.w3.org/2000/svg">
<g clip-path="url(#clip0_8_26)">
<path d="M24.7768 11.4397H21.3672C20.8845 7.35491 17.6451 4.11551 13.5603 3.63281V0.223214C13.5603 0.100446 13.4598 0 13.3371 0H11.6629C11.5402 0 11.4397 0.100446 11.4397 0.223214V3.63281C7.35491 4.11551 4.11551 7.35491 3.63281 11.4397H0.223214C0.100446 11.4397 0 11.5402 0 11.6629V13.3371C0 13.4598 0.100446 13.5603 0.223214 13.5603H3.63281C4.11551 17.6451 7.35491 20.8845 11.4397 21.3672V24.7768C11.4397 24.8996 11.5402 25 11.6629 25H13.3371C13.4598 25 13.5603 24.8996 13.5603 24.7768V21.3672C17.6451 20.8845 20.8845 17.6451 21.3672 13.5603H24.7768C24.8996 13.5603 25 13.4598 25 13.3371V11.6629C25 11.5402 24.8996 11.4397 24.7768 11.4397ZM12.5 19.308C8.73884 19.308 5.69196 16.2612 5.69196 12.5C5.69196 8.73884 8.73884 5.69196 12.5 5.69196C16.2612 5.69196 19.308 8.73884 19.308 12.5C19.308 16.2612 16.2612 19.308 12.5 19.308Z" fill="#6246EA"/>
<path d="M12.5004 9.1552C11.6048 9.1552 10.7677 9.50119 10.1344 10.1373C9.50098 10.7707 9.15221 11.6078 9.15221 12.5034C9.15221 13.3991 9.50098 14.2361 10.1344 14.8695C10.7677 15.5001 11.6076 15.8516 12.5004 15.8516C13.3933 15.8516 14.2331 15.5029 14.8665 14.8695C15.4971 14.2361 15.8486 13.3963 15.8486 12.5034C15.8486 11.6106 15.4999 10.7707 14.8665 10.1373C14.5572 9.82456 14.1887 9.5766 13.7824 9.40796C13.3761 9.23932 12.9403 9.15339 12.5004 9.1552Z" fill="#6246EA"/>
</g>
<defs>
<clipPath id="clip0_8_26">
<rect width="25" height="25" fill="white"/>
</clipPath>
</defs>
</svg>
