<svg width="20" height="22" viewBox="0 0 20 22" fill="none" xmlns="http://www.w3.org/2000/svg">
<path d="M19.1666 12.8333C19.1666 17.8961 15.0618 22 9.99992 22C4.93809 22 0.833252 17.8961 0.833252 12.8333C0.833252 7.77058 4.93809 3.66667 9.99992 3.66667C15.0618 3.66667 19.1666 7.77058 19.1666 12.8333ZM17.3333 12.8333C17.3333 8.78992 14.0433 5.5 9.99992 5.5C5.9565 5.5 2.66659 8.78992 2.66659 12.8333C2.66659 16.8768 5.9565 20.1667 9.99992 20.1667C14.0433 20.1667 17.3333 16.8768 17.3333 12.8333ZM11.8333 1.99925V0H8.16659V1.99925C9.45725 1.78108 10.5151 1.7765 11.8333 1.99925ZM17.9557 5.25708L19.1666 4.04617L17.8704 2.75L16.5807 4.03975C17.072 4.40825 17.5322 4.81342 17.9557 5.25708V5.25708ZM9.99992 7.33333V12.8333H15.4999C15.4999 9.80008 13.0332 7.33333 9.99992 7.33333V7.33333Z" fill="white"/>
</svg>
