<svg width="25" height="25" viewBox="0 0 25 25" fill="none" xmlns="http://www.w3.org/2000/svg">
<path d="M23.4379 19.6377H1.56294C1.44017 19.6377 1.33972 19.7382 1.33972 19.861V22.0931C1.33972 22.2159 1.44017 22.3163 1.56294 22.3163H23.4379C23.5607 22.3163 23.6612 22.2159 23.6612 22.0931V19.861C23.6612 19.7382 23.5607 19.6377 23.4379 19.6377ZM22.732 2.67346H2.26885C1.75546 2.67346 1.33972 3.07246 1.33972 3.56632V16.5127C1.33972 17.0066 1.75546 17.4056 2.26885 17.4056H22.7292C23.2426 17.4056 23.6584 17.0066 23.6584 16.5127V3.56632C23.6612 3.07246 23.2454 2.67346 22.732 2.67346V2.67346ZM8.25936 15.3967H3.34865V10.9324H8.25936V15.3967ZM8.25936 9.14668H3.34865V4.68239H8.25936V9.14668ZM14.9558 15.3967H10.0451V10.9324H14.9558V15.3967ZM14.9558 9.14668H10.0451V4.68239H14.9558V9.14668ZM21.6522 15.3967H16.7415V10.9324H21.6522V15.3967ZM21.6522 9.14668H16.7415V4.68239H21.6522V9.14668Z" fill="#F5487F"/>
</svg>
